REM MD5 404a63f5277313bc61c90890c4e06889
FILE "QuoVadis - Iverkurtz Sen'eki (Japan).bin" BINARY
  TRACK 01 MODE2/2352
    INDEX 01 00:00:00
  TRACK 02 AUDIO
    INDEX 00 55:13:31
    INDEX 01 55:15:31
  TRACK 03 AUDIO
    INDEX 00 58:08:55
    INDEX 01 58:10:55
  TRACK 04 AUDIO
    INDEX 00 58:20:23
    INDEX 01 58:22:23
REM LEADOUT 64:16:57
